<svg version="1.1" id="Layer_1" xmlns="http://www.w3.org/2000/svg" xmlns:xlink="http://www.w3.org/1999/xlink" x="0px" y="0px"
	 width="100%" viewBox="0 0 100 100" enable-background="new 0 0 100 100" xml:space="preserve">
<path fill="#CC0203" opacity="1.000000" stroke="none" 
	d="
M59.000000,101.000000 
	C39.333336,101.000000 20.166674,101.000000 1.000008,101.000000 
	C1.000005,67.666679 1.000005,34.333351 1.000003,1.000021 
	C34.333317,1.000014 67.666634,1.000014 100.999969,1.000007 
	C100.999977,34.333313 100.999977,67.666626 100.999985,100.999969 
	C87.166664,101.000000 73.333336,101.000000 59.000000,101.000000 
M75.332451,26.135418 
	C76.055122,23.847958 76.777794,21.560499 77.531052,19.176228 
	C69.372017,18.320833 69.355080,18.315260 67.104836,25.153383 
	C63.049831,37.475895 59.029446,49.809811 54.964455,62.129017 
	C54.219322,64.387177 53.331131,66.598137 52.000744,70.211105 
	C45.865009,52.091133 40.249317,35.506947 34.739761,19.236195 
	C31.259827,19.236195 28.223545,19.236195 24.792116,19.236195 
	C31.826805,40.103889 38.785725,60.387775 45.428749,80.774597 
	C46.664516,84.567032 48.865017,84.729439 52.092163,84.890419 
	C55.637512,85.067276 56.559254,83.274979 57.477299,80.445427 
	C63.279179,62.563171 69.231453,44.729706 75.332451,26.135418 
z"/>
<path fill="#FBF1F1" opacity="1.000000" stroke="none" 
	d="
M75.233261,26.507774 
	C69.231453,44.729706 63.279179,62.563171 57.477299,80.445427 
	C56.559254,83.274979 55.637512,85.067276 52.092163,84.890419 
	C48.865017,84.729439 46.664516,84.567032 45.428749,80.774597 
	C38.785725,60.387775 31.826805,40.103889 24.792116,19.236195 
	C28.223545,19.236195 31.259827,19.236195 34.739761,19.236195 
	C40.249317,35.506947 45.865009,52.091133 52.000744,70.211105 
	C53.331131,66.598137 54.219322,64.387177 54.964455,62.129017 
	C59.029446,49.809811 63.049831,37.475895 67.104836,25.153383 
	C69.355080,18.315260 69.372017,18.320833 77.531052,19.176228 
	C76.777794,21.560499 76.055122,23.847958 75.233261,26.507774 
z"/>
</svg>